<?xml version="1.0" encoding="UTF-8" standalone="no"?>
<!-- Created with Inkscape (http://www.inkscape.org/) -->

<svg
   width="210mm"
   height="297mm"
   viewBox="0 0 210 297"
   version="1.1"
   id="svg5"
   xml:space="preserve"
   xmlns:inkscape="http://www.inkscape.org/namespaces/inkscape"
   xmlns:sodipodi="http://sodipodi.sourceforge.net/DTD/sodipodi-0.dtd"
   xmlns="http://www.w3.org/2000/svg"
   xmlns:svg="http://www.w3.org/2000/svg"><sodipodi:namedview
     id="namedview7"
     pagecolor="#ffffff"
     bordercolor="#000000"
     borderopacity="0.25"
     inkscape:showpageshadow="2"
     inkscape:pageopacity="0.0"
     inkscape:pagecheckerboard="0"
     inkscape:deskcolor="#d1d1d1"
     inkscape:document-units="mm"
     showgrid="false" /><defs
     id="defs2" /><g
     inkscape:label="Warstwa 1"
     inkscape:groupmode="layer"
     id="layer1"><path
       style="fill:#000000;stroke-width:0.155649"
       d="m 69.819637,169.73067 c -17.38185,-0.08 -33.945331,-0.19977 -36.807736,-0.26612 l -5.204372,-0.12064 33.941559,-2.14293 c 43.865702,-2.76949 43.367532,-2.73754 43.897752,-2.81521 l 0.45255,-0.0663 1.02765,2.64941 c 0.56521,1.45718 0.99811,2.68087 0.962,2.71932 -0.15897,0.16924 -8.675581,0.1787 -38.269403,0.0425 z m 40.376563,-3.0768 c -0.0538,-1.78868 -0.16503,-6.61269 -0.24718,-10.72002 -0.0821,-4.10733 -0.18095,-8.31705 -0.21956,-9.35492 l -0.0702,-1.88705 h 0.90981 0.90981 l -0.0937,2.12795 c -0.0515,1.17037 -0.22567,5.88597 -0.387,10.47911 -0.37234,10.60056 -0.46758,12.60707 -0.5984,12.60707 -0.0582,0 -0.14982,-1.46347 -0.20362,-3.25214 z m -73.527214,-0.6424 c 0.04411,-0.64039 0.849995,-13.82963 1.790857,-29.30941 0.94086,-15.47979 1.747245,-28.14506 1.791963,-28.14506 0.121048,0 3.518346,57.97906 3.404406,58.10036 -0.09242,0.0984 -4.982399,0.48649 -6.404534,0.50829 l -0.662892,0.0102 0.0802,-1.16435 z m 81.128624,-22.80513 c 0.004,-0.11041 0.29535,-1.71842 0.64748,-3.57334 0.58147,-3.06301 0.66972,-3.37715 0.96151,-3.42227 0.25875,-0.04 0.30546,0.0147 0.24004,0.28105 -0.089,0.36237 0.22503,0.45969 0.50874,0.15764 0.28313,-0.30142 1.29676,-0.46647 1.86865,-0.30426 2.15185,0.61034 1.71946,4.30542 -0.58098,4.96489 -0.76165,0.21834 -1.65463,0.0146 -2.06816,-0.47188 -0.15049,-0.17703 -0.32167,-0.32187 -0.38039,-0.32187 -0.0587,0 -0.19094,0.55544 -0.29381,1.23431 -0.10286,0.67888 -0.22126,1.3293 -0.26311,1.4454 -0.0969,0.26888 -0.64962,0.27781 -0.63997,0.0103 z m 4.31748,-3.06508 c 0.4784,-0.46675 0.558,-0.65114 0.61897,-1.43377 0.0625,-0.80267 0.0287,-0.94205 -0.31809,-1.31126 -0.30423,-0.32389 -0.53777,-0.41312 -1.08123,-0.41312 -1.3135,0 -2.06897,0.80038 -2.09737,2.22206 -0.0193,0.96772 0.52198,1.47173 1.58066,1.47173 0.63758,0 0.82914,-0.0791 1.29706,-0.53564 z m -47.77,1.22935 c -4.6e-5,-0.0724 0.281344,-1.63121 0.625315,-3.46405 0.60725,-3.23572 0.636008,-3.33244 0.990786,-3.33244 0.276067,0 0.347002,0.0687 0.290184,0.28104 -0.04136,0.15458 -0.152435,0.71467 -0.246832,1.24465 -0.0944,0.52998 -0.206107,1.09221 -0.248247,1.24939 -0.07112,0.26531 0.06706,0.28258 1.927197,0.2409 l 2.003813,-0.0449 0.105328,-0.5621 c 0.46429,-2.47777 0.441379,-2.40899 0.80247,-2.40899 h 0.345334 l -0.579863,3.09154 c -0.763015,4.06802 -0.693806,3.81423 -1.040176,3.81423 -0.356258,0 -0.364889,-0.19106 -0.07255,-1.60599 0.118624,-0.57414 0.218064,-1.13423 0.220978,-1.24465 0.004,-0.15054 -0.482516,-0.20075 -1.945073,-0.20075 h -1.950373 l -0.175906,0.92345 c -0.09675,0.5079 -0.22312,1.17639 -0.280828,1.48555 -0.07727,0.41394 -0.192765,0.57562 -0.438194,0.61341 -0.183301,0.0282 -0.333312,-0.008 -0.333361,-0.0803 z m 8.891509,-0.043 c -1.072419,-0.34644 -1.499704,-0.96653 -1.499704,-2.17641 0,-1.3542 0.705923,-2.37198 1.901916,-2.74214 1.659681,-0.51366 2.930044,0.37829 2.922015,2.05162 -0.0068,1.4121 -0.760019,2.46407 -2.03318,2.83949 -0.679109,0.20026 -0.75134,0.20179 -1.291047,0.0274 z m 1.790392,-0.97603 c 1.103642,-0.71635 1.247195,-2.69732 0.23118,-3.19016 -0.486413,-0.23595 -1.393615,-0.22269 -1.857382,0.0271 -1.039651,0.56007 -1.421088,2.34489 -0.661333,3.09451 0.51457,0.5077 1.562545,0.53909 2.287535,0.0685 z m 2.593108,0.9898 c 0,-0.0762 0.161652,-0.99762 0.359225,-2.04764 0.197575,-1.05003 0.4043,-2.18014 0.459391,-2.51138 0.07553,-0.45416 0.172669,-0.60225 0.39503,-0.60225 0.194299,0 0.294868,0.10955 0.294868,0.3212 0,0.38171 0.04275,0.38894 0.573183,0.097 0.812362,-0.4471 1.833781,-0.38149 2.332885,0.14987 l 0.382736,0.40747 0.563994,-0.40747 c 0.907906,-0.65594 2.058765,-0.61952 2.671523,0.0845 0.500015,0.57452 0.512286,0.89564 0.113139,2.96088 -0.165936,0.85858 -0.301703,1.58923 -0.301703,1.62367 0,0.0344 -0.135766,0.0626 -0.301702,0.0626 -0.36652,0 -0.366589,0.1199 0.0011,-1.89631 0.237548,-1.30256 0.26479,-1.73045 0.127812,-2.00749 -0.247159,-0.49987 -0.420097,-0.58774 -1.162251,-0.59052 -0.886033,-0.003 -1.574728,0.70394 -1.798705,1.8472 -0.08622,0.44013 -0.235818,1.21578 -0.332428,1.72368 -0.140844,0.74044 -0.233326,0.92344 -0.466663,0.92344 -0.357099,0 -0.357494,0.0582 0.01263,-1.85685 0.311531,-1.6119 0.296568,-1.97801 -0.09801,-2.39808 -0.376128,-0.40044 -1.463479,-0.31052 -1.994192,0.1649 -0.501137,0.44893 -0.679638,0.92713 -0.927239,2.48404 -0.23414,1.47225 -0.285196,1.60599 -0.613085,1.60599 -0.160299,0 -0.291491,-0.0623 -0.291491,-0.13851 z m 11.389279,-0.0111 c -1.126699,-0.28843 -1.642979,-1.01947 -1.616919,-2.2895 0.01841,-0.89737 0.307826,-1.54877 0.939528,-2.11466 1.387676,-1.24311 3.396863,-0.64422 3.704993,1.10436 0.17955,1.01894 0.13748,1.04037 -2.042335,1.04037 h -1.965801 v 0.4088 c 0,0.22484 0.166623,0.58619 0.370272,0.803 0.296231,0.31537 0.523961,0.3942 1.138876,0.3942 0.422733,0 0.962268,-0.10662 1.198958,-0.23693 0.38345,-0.2111 0.44018,-0.20967 0.52049,0.0131 0.12899,0.35787 0.13104,0.3541 -0.32471,0.5997 -0.5587,0.30109 -1.372568,0.41852 -1.923352,0.27752 z m 2.423542,-3.34348 c -0.15249,-0.68572 -0.61666,-1.00374 -1.465028,-1.00374 -0.850173,0 -1.396754,0.313 -1.724355,0.98744 l -0.222441,0.45795 h 1.755018 1.755016 z m 4.24579,2.9711 c 0.0549,-0.28708 0.3445,-1.82281 0.64364,-3.41274 0.49846,-2.64939 0.5717,-2.89508 0.87701,-2.94211 0.18321,-0.0282 0.33316,0.008 0.3332,0.0803 5e-5,0.0724 -0.28134,1.63121 -0.62531,3.46405 -0.59906,3.19208 -0.6402,3.33244 -0.97685,3.33244 -0.3164,0 -0.3415,-0.0521 -0.25169,-0.52194 z m 3.07906,-1.7666 c 0.59448,-3.16488 0.54858,-3.01124 0.89967,-3.01124 0.24034,0 0.28772,0.0714 0.21323,0.3212 -0.10561,0.35426 0.1977,0.44798 0.47937,0.14811 0.26683,-0.28407 1.24215,-0.45094 1.74259,-0.29814 0.25644,0.0783 0.61651,0.29264 0.80017,0.47632 l 0.33391,0.33397 0.56809,-0.41043 c 1.09573,-0.79164 2.57889,-0.53025 2.95869,0.52142 0.11861,0.32843 0.0769,0.88978 -0.17236,2.32029 -0.30531,1.75213 -0.35331,1.88704 -0.67133,1.88704 h -0.34251 l 0.27591,-1.40524 c 0.35792,-1.8229 0.36073,-2.4897 0.0119,-2.82575 -0.34838,-0.33565 -1.25891,-0.34263 -1.85543,-0.0142 -0.55553,0.30584 -0.76546,0.82756 -1.11046,2.75967 -0.24079,1.34852 -0.29649,1.48555 -0.60382,1.48555 h -0.33857 l 0.27591,-1.40525 c 0.35791,-1.82289 0.36073,-2.48969 0.0119,-2.82575 -0.34837,-0.33564 -1.25891,-0.34263 -1.85542,-0.0142 -0.55553,0.30584 -0.76547,0.82757 -1.11046,2.75968 -0.24059,1.34737 -0.29668,1.48554 -0.60309,1.48554 h -0.33784 l 0.42988,-2.28854 z m 15.69963,2.0216 c 0.0394,-0.16233 0.26655,-1.36113 0.50472,-2.664 0.36555,-1.99965 0.47521,-2.36884 0.70363,-2.36884 0.18807,0 0.2706,0.12245 0.2706,0.4015 0,0.48522 0.0672,0.49483 0.56224,0.0803 0.48716,-0.40797 1.29178,-0.44111 1.22109,-0.0503 -0.0275,0.15223 -0.27231,0.33251 -0.55871,0.41152 -1.16478,0.32133 -1.37216,0.65963 -1.79675,2.93107 -0.24198,1.29449 -0.30716,1.45106 -0.62435,1.49965 -0.28053,0.043 -0.33926,-0.007 -0.28247,-0.2409 z m 5.06266,0.0736 c -2.32091,-0.65464 -1.6494,-4.48376 0.87564,-4.99315 1.66857,-0.3366 2.98257,1.2149 2.49531,2.94634 -0.44174,1.56965 -1.90744,2.45961 -3.37095,2.04681 z m 1.85187,-0.85329 c 0.57389,-0.31595 0.9487,-1.10136 0.94968,-1.99004 0.001,-0.95387 -0.52093,-1.46013 -1.50544,-1.46013 -1.25415,0 -2.01365,0.81471 -2.01365,2.16002 0,1.03207 0.46897,1.53377 1.43372,1.53377 0.38125,0 0.89231,-0.10963 1.13569,-0.24362 z m 3.63127,0.44437 c -0.0807,-0.33124 -0.32573,-1.43335 -0.54453,-2.44915 -0.21881,-1.01579 -0.42481,-1.93723 -0.45778,-2.04764 -0.0358,-0.12003 0.0765,-0.20075 0.27943,-0.20075 0.31317,0 0.37384,0.1675 0.78532,2.16809 0.24526,1.19246 0.4933,2.1681 0.55119,2.1681 0.0579,0 0.6697,-0.97285 1.35958,-2.16188 0.98555,-1.69864 1.32528,-2.16322 1.58549,-2.1681 0.2907,-0.005 0.14322,0.31682 -1.20681,2.63711 -1.22692,2.1087 -1.60545,2.64465 -1.87158,2.64989 -0.26083,0.005 -0.36561,-0.12481 -0.48031,-0.59567 z m 5.4903,0.45267 c -1.11578,-0.28564 -1.58394,-0.93204 -1.58394,-2.18702 0,-1.36432 0.76954,-2.46101 1.96793,-2.80456 1.33274,-0.38206 2.54437,0.48877 2.6737,1.92166 l 0.0731,0.8105 h -2.05568 c -1.92591,0 -2.05569,0.0194 -2.05569,0.30807 0,0.52385 0.1703,0.81859 0.61419,1.06297 0.53929,0.2969 1.6013,0.30113 2.12818,0.008 0.2223,-0.12348 0.44292,-0.18326 0.49027,-0.13285 0.51813,0.55162 -1.14026,1.29738 -2.25211,1.01275 z m 2.48905,-3.23031 c 0,-0.18068 -0.16662,-0.50589 -0.37027,-0.7227 -0.81456,-0.8672 -2.94846,-0.23029 -2.94846,0.88004 0,0.11077 0.58545,0.17115 1.65937,0.17115 1.57108,0 1.65936,-0.0175 1.65936,-0.32849 z m 1.75905,2.17164 c 0.67541,-3.80813 0.72803,-4.00898 1.06394,-4.06092 0.2588,-0.04 0.30552,0.0147 0.24009,0.28105 -0.089,0.36237 0.22503,0.45969 0.50874,0.15764 0.51156,-0.54461 2.14587,-0.4259 2.50233,0.18176 0.2318,0.39515 0.44611,0.39539 0.78148,8e-4 0.14571,-0.17141 0.56916,-0.38074 0.94101,-0.46517 1.29089,-0.29311 2.17565,0.29205 2.20037,1.45527 0.006,0.28933 -0.11479,1.23069 -0.26876,2.0919 -0.25316,1.41603 -0.3117,1.56585 -0.61188,1.56585 -0.33136,0 -0.33156,-0.002 -0.11588,-1.16435 0.11884,-0.64039 0.2552,-1.53334 0.30304,-1.98432 0.0778,-0.73317 0.0495,-0.84794 -0.26715,-1.08405 -0.39761,-0.29649 -1.12958,-0.34249 -1.7102,-0.10747 -0.58847,0.23819 -0.91161,0.96396 -1.21628,2.73173 -0.25815,1.49797 -0.30159,1.60852 -0.63195,1.60852 -0.29066,0 -0.34052,-0.0653 -0.27599,-0.36134 0.28244,-1.29587 0.53039,-2.77933 0.53039,-3.17324 0,-1.20346 -2.0255,-1.32822 -2.68957,-0.16567 -0.15186,0.26584 -0.40084,1.20714 -0.55331,2.0918 -0.2523,1.46394 -0.30719,1.60845 -0.61096,1.60845 h -0.33375 z m 11.08122,1.04676 c -0.77805,-0.1949 -1.39366,-0.94415 -1.48505,-1.80743 -0.18956,-1.79037 0.90866,-3.1966 2.5124,-3.21704 1.28879,-0.0164 2.12263,0.84741 2.12263,2.19898 v 0.57798 h -2.0365 c -1.68034,0 -2.03649,0.0408 -2.03649,0.23334 0,0.44455 0.33666,1.01686 0.70256,1.19435 0.50781,0.24632 1.5541,0.22161 2.03981,-0.0482 0.2223,-0.12347 0.44292,-0.18325 0.49027,-0.13284 0.5334,0.56786 -1.1412,1.29351 -2.30963,1.00083 z m 2.54657,-3.2184 c 0,-0.59632 -0.66145,-1.1169 -1.41913,-1.1169 -0.8672,0 -1.41341,0.26791 -1.68464,0.82629 -0.11823,0.2434 -0.21496,0.48228 -0.21496,0.53083 0,0.0486 0.74671,0.0883 1.65937,0.0883 1.57108,0 1.65936,-0.0175 1.65936,-0.32849 z m 1.65937,3.14004 c 0,-0.26051 0.71979,-4.3202 0.8473,-4.77889 0.043,-0.15458 0.2139,-0.28105 0.37984,-0.28105 0.23305,0 0.27991,0.0731 0.20594,0.3212 -0.10202,0.34222 0.19361,0.45133 0.4601,0.16981 0.0788,-0.0833 0.4353,-0.22096 0.79217,-0.30598 1.25995,-0.30018 2.15952,0.30062 2.18155,1.45701 0.006,0.28933 -0.111,1.23068 -0.25891,2.0919 -0.24595,1.43202 -0.29794,1.56584 -0.6084,1.56584 h -0.33947 l 0.2759,-1.40524 c 0.49809,-2.53675 0.3258,-3.09154 -0.96006,-3.09154 -1.29646,0 -1.71512,0.58748 -2.14594,3.01124 -0.22144,1.24583 -0.30971,1.48554 -0.54704,1.48554 -0.15564,0 -0.28298,-0.10793 -0.28298,-0.23984 z m 7.39171,0.12762 c -0.79728,-0.31813 -0.92389,-1.02294 -0.52798,-2.93917 0.3067,-1.48442 0.29444,-1.60599 -0.16191,-1.60599 -0.56169,0 -0.42668,-0.53386 0.16249,-0.64251 0.35665,-0.0658 0.46548,-0.18207 0.52712,-0.56333 0.0549,-0.33951 0.17461,-0.49519 0.40814,-0.53067 0.30015,-0.0456 0.32249,0.002 0.24329,0.52195 l -0.0872,0.57216 h 0.69858 c 0.3842,0 0.69752,0.0542 0.69625,0.12045 -0.006,0.33055 -0.29192,0.50459 -0.90419,0.55103 l -0.67527,0.0512 -0.28966,1.62269 c -0.15932,0.89248 -0.24679,1.74165 -0.19439,1.88704 0.0663,0.18402 0.2774,0.26436 0.69452,0.26436 0.59594,0 0.92033,0.23124 0.67179,0.47887 -0.1843,0.18361 -0.99232,0.31933 -1.26156,0.2119 z m 5.27971,0.003 c -4e-5,-0.0724 0.28135,-1.63121 0.62532,-3.46406 0.59907,-3.19207 0.6402,-3.33244 0.97684,-3.33244 0.31641,0 0.34152,0.0521 0.2517,0.52195 -0.0549,0.28707 -0.3445,1.82281 -0.64364,3.41274 -0.49846,2.64938 -0.57171,2.89508 -0.877,2.94211 -0.18323,0.0282 -0.33317,-0.008 -0.33322,-0.0803 z m 2.75464,-0.0915 c 0.0393,-0.11041 0.26317,-1.30286 0.49744,-2.64989 0.39742,-2.28515 0.44832,-2.44914 0.76019,-2.44914 0.25999,0 0.31674,0.0714 0.25536,0.3212 -0.0956,0.38908 0.13673,0.4132 0.63463,0.0659 0.3873,-0.27017 1.43003,-0.35304 2.00094,-0.15903 0.42706,0.14514 0.79208,0.87582 0.78464,1.57072 -0.003,0.29146 -0.12246,1.18035 -0.26523,1.97532 -0.23276,1.29624 -0.29589,1.45089 -0.61181,1.49868 -0.281,0.0425 -0.33568,-0.006 -0.27031,-0.2409 0.13627,-0.48916 0.54962,-2.9582 0.54962,-3.28302 0,-0.83713 -1.29454,-1.238 -2.26771,-0.70223 -0.60274,0.33182 -0.84572,0.90043 -1.1586,2.71127 -0.24789,1.43472 -0.29123,1.54189 -0.62354,1.54189 -0.22326,0 -0.33032,-0.0752 -0.28562,-0.20075 z m 7.88047,0.0516 c -1.11412,-0.28624 -1.58394,-0.93272 -1.58394,-2.17954 0,-1.3458 0.70769,-2.3746 1.87866,-2.73109 0.91466,-0.27845 1.74247,-0.12497 2.29238,0.42503 0.34091,0.34097 0.35015,0.38657 0.11516,0.56949 -0.2101,0.16356 -0.3222,0.14292 -0.63179,-0.11634 -0.43424,-0.36365 -1.41844,-0.4179 -1.99052,-0.10973 -1.03965,0.56007 -1.42108,2.34489 -0.66133,3.09451 0.50781,0.50103 1.56276,0.53897 2.2674,0.0815 0.38315,-0.24872 0.5113,-0.26993 0.63924,-0.10581 0.22371,0.28696 -0.34788,0.8206 -1.11845,1.0442 -0.33187,0.0963 -0.63734,0.16811 -0.67883,0.15956 -0.0415,-0.009 -0.27907,-0.0679 -0.52798,-0.13182 z M 79.43415,120.08335 c 2.36661,-5.58869 5.51104,-13.01591 6.987625,-16.50494 l 2.6847,-6.343681 2.839531,-0.0386 2.839533,-0.0387 6.896251,16.259201 c 3.79293,8.94255 6.94035,16.38722 6.99426,16.5437 0.092,0.2671 -0.0843,0.28184 -2.88102,0.2409 l -2.97902,-0.0436 -1.52619,-3.77409 -1.526186,-3.77409 -7.844271,-0.0411 -7.844272,-0.0411 -1.515255,3.81523 -1.515255,3.81522 -2.956677,0.0435 -2.956677,0.0435 z m 18.292991,-2.46738 c 0,-0.0993 -5.729836,-14.24351 -5.803076,-14.32499 -0.03286,-0.0366 -5.376108,13.11998 -5.752446,14.16408 -0.08351,0.23169 0.463058,0.25611 5.731604,0.25611 3.203156,0 5.823918,-0.0428 5.823918,-0.0952 z m 15.085139,-3.9019 V 97.154429 h 7.32223 c 4.21884,0 7.93852,0.0732 8.77631,0.17262 4.22962,0.5021 7.78431,2.25986 10.34852,5.117231 1.8571,2.06942 2.78851,3.83216 3.52687,6.67481 0.38373,1.47735 0.41732,1.83757 0.4193,4.49679 0.003,3.45542 -0.26157,4.83645 -1.41284,7.38647 -2.15758,4.77894 -5.98781,7.69041 -11.63249,8.84217 -1.04606,0.21345 -2.7618,0.27707 -9.31507,0.34541 l -8.03283,0.0838 z m 16.90944,10.94238 c 5.11087,-1.49335 7.85022,-5.34598 7.85022,-11.04057 0,-3.43821 -0.85108,-5.7845 -2.88966,-7.96635 -0.91658,-0.981 -1.42155,-1.36774 -2.56755,-1.9664 -2.39402,-1.25062 -2.55192,-1.27598 -8.40344,-1.34993 l -5.16666,-0.0653 v 11.43009 11.43008 l 5.01581,-0.0685 c 4.49315,-0.0613 5.13516,-0.10335 6.16128,-0.40317 z m 19.89829,-10.96027 V 97.154429 h 2.86484 2.86485 l 0.039,8.434071 0.0391,8.43407 7.61799,-8.42147 7.618,-8.421471 3.22049,-0.0126 3.2205,-0.0126 -1.03315,1.17743 c -0.56823,0.64759 -3.47694,3.938131 -6.4638,7.312321 -2.98686,3.37418 -5.43065,6.19778 -5.43065,6.27467 0,0.0769 3.10318,4.23013 6.89594,9.22943 l 6.89593,9.08965 -3.35092,-0.008 -3.35094,-0.008 -5.50607,-6.97349 -5.50608,-6.97349 -2.52868,2.7655 -2.52868,2.7655 0.0396,4.21579 0.0396,4.21579 -2.82847,-5e-5 -2.82846,-6e-5 z M 31.373661,110.72423 c -1.689231,-0.47532 -3.090463,-0.88639 -3.11385,-0.91348 -0.04207,-0.0487 51.906415,-47.950821 52.990287,-48.862731 0.645039,-0.5427 0.477192,-0.35834 -17.098596,18.78137 -7.218991,7.86134 -16.742124,18.23205 -21.162516,23.046021 -4.420393,4.81397 -8.151135,8.76626 -8.290538,8.78287 -0.139402,0.0166 -1.635556,-0.35872 -3.324787,-0.83405 z M 99.377348,92.371569 c -6.865788,-6.51974 -16.519351,-15.6887 -20.582055,-19.54883 -1.742333,-1.65546 -3.167879,-3.07195 -3.167879,-3.14776 0,-0.0758 0.593978,-0.85883 1.31995,-1.74006 0.725972,-0.88123 1.31995,-1.67751 1.31995,-1.76951 0,-0.28486 0.131738,-0.19112 0.716936,0.51011 0.310915,0.37257 5.178943,5.77474 10.817842,12.00482 12.792298,14.13344 14.007418,15.47429 15.686558,17.30975 l 1.35904,1.48554 -1.05298,-0.005 -1.05298,-0.005 -5.364382,-5.09401 z"
       id="path181" /></g></svg>
